<svg width="368" height="298" viewBox="0 0 368 298" fill="none" xmlns="http://www.w3.org/2000/svg">
<g clip-path="url(#clip0_2700:320)">
<path d="M138.067 13.8763C136.429 13.8778 134.858 14.5291 133.699 15.6873L83.4182 65.9753C30.7935 118.597 30.7935 203.912 83.4182 256.533C136.043 309.154 221.351 309.157 273.969 256.533L324.26 206.241C324.833 205.669 325.288 204.989 325.598 204.241C325.908 203.493 326.068 202.691 326.068 201.881V17.3711C326.068 16.9122 325.977 16.4577 325.802 16.0337C325.626 15.6097 325.369 15.2245 325.044 14.8999C324.72 14.5754 324.334 14.318 323.91 14.1424C323.486 13.9667 323.032 13.8763 322.573 13.8763H138.067Z" fill="#B880FF" stroke="white" stroke-width="2" stroke-miterlimit="10"/>
<mask id="mask0_2700:320" style="mask-type:alpha" maskUnits="userSpaceOnUse" x="39" y="-2" width="289" height="299">
<path d="M138.067 13.8763C136.429 13.8777 134.858 14.529 133.699 15.6873L60.4752 60.4125C29.6649 37.4558 30.7935 203.911 83.4182 256.533C136.043 309.154 221.351 309.157 273.969 256.533L324.26 206.241C324.833 205.669 325.288 204.989 325.598 204.241C325.908 203.493 326.068 202.691 326.068 201.881V17.3711C326.068 16.9122 325.977 16.4577 325.802 16.0337C325.626 15.6097 325.369 15.2244 325.044 14.8999C324.72 14.5754 324.334 14.318 323.91 14.1423C323.486 13.9667 323.032 13.8763 322.573 13.8763L261.045 0L138.067 13.8763Z" fill="#B880FF" stroke="white" stroke-width="2" stroke-miterlimit="10"/>
</mask>
<g mask="url(#mask0_2700:320)">
<path d="M49.5881 81.5326L257.51 2.46748C260.065 1.49567 262.902 1.57887 265.397 2.69879C267.891 3.81871 269.838 5.88362 270.81 8.43923L326.161 154L326.161 203L322 209L272.5 258.5L251 275.5L227.5 287.5L202 294L178.5 296L152 293.5L128.5 287L113.82 279.5L43.6064 94.8549C42.6345 92.2993 42.7177 89.4623 43.8377 86.968C44.9576 84.4738 47.0225 82.5265 49.5781 81.5547L49.5881 81.5326Z" fill="white"/>
<path d="M113.63 279L43.6064 94.8549C42.6345 92.2993 42.7177 89.4623 43.8377 86.968C44.9576 84.4738 47.0225 82.5265 49.5781 81.5547L49.5881 81.5326L257.51 2.46748C260.065 1.49567 262.902 1.57887 265.397 2.69879C267.891 3.81871 269.838 5.88362 270.81 8.43923L325.864 153.217" stroke="black" stroke-width="1.2" stroke-linecap="round" stroke-linejoin="round"/>
<path d="M49.5839 81.5212L257.506 2.45612C260.061 1.48431 262.898 1.56751 265.392 2.68743C267.887 3.80735 269.834 5.87226 270.806 8.42788L274.592 18.385L47.3857 104.783L43.6103 94.8552C43.124 93.5877 42.8928 92.2366 42.93 90.8796C42.9672 89.5225 43.272 88.1861 43.8271 86.9472C44.3821 85.7083 45.1764 84.5912 46.1643 83.66C47.1522 82.7289 48.3143 82.002 49.5839 81.5212Z" fill="black"/>
<path d="M59.9066 93.4182C62.4365 93.4182 64.4873 91.3674 64.4873 88.8375C64.4873 86.3077 62.4365 84.2568 59.9066 84.2568C57.3768 84.2568 55.3259 86.3077 55.3259 88.8375C55.3259 91.3674 57.3768 93.4182 59.9066 93.4182Z" fill="white"/>
<path d="M72.7037 88.5557C75.2336 88.5557 77.2844 86.5048 77.2844 83.975C77.2844 81.4451 75.2336 79.3943 72.7037 79.3943C70.1739 79.3943 68.123 81.4451 68.123 83.975C68.123 86.5048 70.1739 88.5557 72.7037 88.5557Z" fill="#B880FF"/>
<path d="M85.5006 83.6898C88.0305 83.6898 90.0813 81.639 90.0813 79.1091C90.0813 76.5793 88.0305 74.5284 85.5006 74.5284C82.9708 74.5284 80.9199 76.5793 80.9199 79.1091C80.9199 81.639 82.9708 83.6898 85.5006 83.6898Z" fill="#B880FF"/>
<path d="M103.338 107.01L81.9785 115.132L84.3224 121.296L105.682 113.174L103.338 107.01Z" fill="#B880FF"/>
<path d="M177.96 78.6353L124.555 98.9436L126.899 105.107L180.304 84.7991L177.96 78.6353Z" fill="black"/>
<path d="M175.896 101.851L110.789 126.609L113.133 132.773L178.24 108.015L175.896 101.851Z" fill="black"/>
<path d="M136.186 136.379L117.242 143.583L119.586 149.747L138.53 142.543L136.186 136.379Z" fill="black"/>
<path d="M182.351 118.827L143.97 133.422L146.314 139.586L184.694 124.991L182.351 118.827Z" fill="black"/>
<path d="M188.803 135.8L123.696 160.558L126.04 166.722L191.147 141.964L188.803 135.8Z" fill="black"/>
<path d="M203.282 173.875L138.175 198.633L140.519 204.796L205.626 180.039L203.282 173.875Z" fill="black"/>
<path d="M163.573 208.403L144.629 215.607L146.973 221.771L165.917 214.567L163.573 208.403Z" fill="black"/>
<path d="M209.737 190.85L171.357 205.445L173.701 211.608L212.081 197.014L209.737 190.85Z" fill="black"/>
<path d="M216.189 207.823L151.082 232.58L153.426 238.744L218.533 213.986L216.189 207.823Z" fill="black"/>
<path d="M111.298 116.579L112.239 96.4147L115.308 95.2463L114.391 115.404L111.298 116.579Z" fill="black"/>
<path d="M131.724 181.66L110.365 189.782L112.708 195.946L134.068 187.824L131.724 181.66Z" fill="#B880FF"/>
<path d="M222.027 147.322L165.57 168.79L167.914 174.954L224.371 153.485L222.027 147.322Z" fill="black"/>
<path d="M139.692 191.224L140.637 171.06L143.706 169.891L142.785 190.049L139.692 191.224Z" fill="black"/>
<path d="M153.249 183.626L152.108 180.627L157.198 175.472L149.981 175.001L148.878 172.094L159.589 173.039L160.641 175.805L153.249 183.626Z" fill="black"/>
<path d="M230.668 245.898L165.561 270.656L167.905 276.819L233.012 252.061L230.668 245.898Z" fill="black"/>
<path d="M159.111 253.684L137.751 261.807L140.095 267.97L161.455 259.848L159.111 253.684Z" fill="#B880FF"/>
<path d="M249.417 219.345L167.395 250.535L169.739 256.699L251.76 225.509L249.417 219.345Z" fill="black"/>
<path d="M180.372 90.1193C175.348 94.8237 167.146 99.7068 157.348 103.435C139.424 110.25 122.933 110.621 120.517 104.263C118.102 97.9062 130.672 87.2294 148.593 80.415C155.269 77.8755 161.744 76.2329 167.369 75.4976" stroke="#B880FF" stroke-width="1.2" stroke-miterlimit="10"/>
<path d="M236.66 110.067C233.911 102.975 207.509 108.549 199.389 110.067L185.884 88.1846L189.815 74.6144L233.069 80.8411L236.66 110.067Z" fill="black"/>
<path d="M259.911 89.621C258.193 84.9235 247.726 71.1745 237.526 67.6969C219.131 61.4324 197.211 65.0922 183.96 76.7174C183.262 77.3312 182.779 78.153 182.583 79.0618C182.387 79.9706 182.488 80.9183 182.871 81.7655C188.252 93.6313 212.104 70.556 231.042 103.947C237.526 115.373 234.949 147.589 199.719 120.947L206.417 140.29L264.897 152.837L270.244 96.7653L259.911 89.621Z" fill="#B880FF"/>
<path d="M243.701 71.068L229.01 176.441L272.927 255.375L273.113 255.193L323.404 204.894C323.978 204.322 324.432 203.642 324.743 202.894C325.053 202.146 325.212 201.344 325.212 200.534V188.506C285.498 132.363 283.92 73.0336 243.701 71.068Z" fill="#B880FF"/>
<path d="M256.216 102.714C259.783 101.593 278.453 99.6553 282.274 104.569" stroke="black" stroke-width="1.2" stroke-linecap="round" stroke-linejoin="round"/>
<path d="M199.719 120.947C234.949 147.576 237.52 115.373 231.042 103.947C212.104 70.556 188.252 93.6382 182.871 81.7655C182.488 80.9183 182.387 79.9706 182.583 79.0618C182.779 78.153 183.262 77.3312 183.96 76.7174C197.211 65.0922 219.131 61.4324 237.526 67.6969C247.726 71.1745 258.189 84.9235 259.911 89.621" stroke="black" stroke-width="1.2" stroke-linecap="round" stroke-linejoin="round"/>
<path d="M243.701 71.068C283.24 73.0027 285.426 131.486 323.222 186.767" stroke="black" stroke-width="1.2" stroke-linecap="round" stroke-linejoin="round"/>
<path d="M174.85 96.7582L165.967 76.5798C165.869 76.3321 165.842 76.0619 165.889 75.7998C165.937 75.5376 166.057 75.294 166.236 75.0965C166.414 74.8991 166.645 74.7556 166.901 74.6825C167.157 74.6094 167.429 74.6096 167.685 74.6829L188.585 81.7034L174.85 96.7582Z" fill="#B880FF" stroke="black" stroke-width="1.2" stroke-linecap="round" stroke-linejoin="round"/>
<path d="M168.589 82.5353C168.245 81.6728 168.885 80.0852 170.166 78.6831C171.448 77.2811 172.971 76.5148 173.857 76.7622L167.692 74.7004C167.436 74.627 167.165 74.6269 166.908 74.7C166.652 74.7731 166.422 74.9165 166.243 75.114C166.064 75.3114 165.944 75.5551 165.896 75.8172C165.849 76.0794 165.876 76.3496 165.974 76.5972L168.589 82.5353Z" fill="black"/>
<path d="M189.438 82.1846C187.376 80.3908 182.61 82.3529 178.785 86.5419C174.96 90.7308 173.438 95.6517 175.41 97.5383L239.062 158.795L256.22 140.005L189.438 82.1846Z" fill="#B880FF" stroke="black" stroke-width="1.2" stroke-linecap="round" stroke-linejoin="round"/>
<path d="M253.234 154.524C248.423 159.795 242.055 161.692 239.059 158.809C236.062 155.926 237.543 149.569 242.21 144.459C246.876 139.349 253.124 137.342 256.217 140.019C259.309 142.696 258.045 149.256 253.234 154.524Z" fill="white" stroke="black" stroke-width="1.2" stroke-linecap="round" stroke-linejoin="round"/>
<path d="M249.286 150.919C247.299 153.098 244.952 154.177 244.056 153.325C243.159 152.472 244.035 150.067 246.004 147.909C247.973 145.751 250.306 144.662 251.22 145.476C252.134 146.29 251.272 148.744 249.286 150.919Z" fill="black"/>
<path d="M239.059 158.809L199.719 120.947C191.712 99.37 183.225 93.2602 178.95 94.3976C176.805 94.9681 174.111 98.1467 174.792 105.119C177.829 122.803 187.506 145.472 200.503 162.235C220.777 188.352 239.976 210.894 266.323 247.327C269.436 251.633 273.289 239.423 276.611 244.158" fill="#B880FF"/>
<path d="M180.479 94.3975L180.115 94.2738C179.722 94.2575 179.33 94.2992 178.95 94.3975C176.805 94.968 174.111 98.1466 174.792 105.119C177.829 122.803 187.506 145.472 200.503 162.235C203.54 166.149 206.554 169.981 209.571 173.792C191.142 141.985 180.149 120.263 180.479 94.3975Z" fill="white"/>
<path d="M239.059 158.809L199.719 120.947C191.712 99.37 183.225 93.2602 178.95 94.3976C176.805 94.9681 174.111 98.1467 174.792 105.119C177.829 122.803 187.506 145.472 200.503 162.235C220.949 188.582 240.822 211.286 267.512 248.275" stroke="black" stroke-width="1.2" stroke-linecap="round" stroke-linejoin="round"/>
</g>
<path d="M83.418 256.533C136.043 309.154 221.351 309.157 273.969 256.533L324.26 206.241C324.833 205.669 325.288 204.989 325.598 204.241C325.908 203.493 326.067 202.691 326.068 201.881V17.3711C326.068 16.9122 325.977 16.4577 325.801 16.0337C325.626 15.6097 325.368 15.2245 325.044 14.8999C324.719 14.5754 324.334 14.318 323.91 14.1424C323.486 13.9667 323.032 13.8763 322.573 13.8763" stroke="white" stroke-width="2" stroke-miterlimit="10"/>
<path d="M325.256 201.331V188.537C320.092 181.04 315.31 173.285 310.93 165.304C298.961 154.201 234.701 198.372 244.608 218.389L272.996 256.739C273.247 256.492 323.167 206.128 323.167 206.128C324.717 204.709 325.315 203.296 325.256 201.331Z" fill="black"/>
<path d="M258.103 238.183C248.203 218.169 312.46 173.994 324.425 185.097" stroke="white" stroke-width="1.2" stroke-linecap="round" stroke-linejoin="round"/>
</g>
<defs>
<clipPath id="clip0_2700:320">
<rect width="368" height="297.99" fill="white"/>
</clipPath>
</defs>
</svg>
